<svg width="26" height="27" viewBox="0 0 26 27" fill="none" xmlns="http://www.w3.org/2000/svg">
<path d="M25.87 8.95007C25.87 17.2937 13.9434 24.0473 13.4355 24.3262C13.3016 24.4009 13.152 24.44 13 24.44C12.848 24.44 12.6984 24.4009 12.5645 24.3262C12.0566 24.0473 0.130005 17.2937 0.130005 8.95007C0.132134 6.99078 0.883429 5.11237 2.21906 3.72694C3.5547 2.34151 5.3656 1.56221 7.25447 1.56C9.62738 1.56 11.705 2.61845 13 4.40756C14.295 2.61845 16.3726 1.56 18.7455 1.56C20.6344 1.56221 22.4453 2.34151 23.7809 3.72694C25.1166 5.11237 25.8679 6.99078 25.87 8.95007Z" fill="#FF4848"/>
</svg>
